{"title":"UFO - Making Contact (1983) (2009 Remastered &amp; Expanded)","uid":6405738,"size":390839832,"categoryP":"audio","categoryS":"flac","magnet":"?xt=urn:btih:7eda1074852c311dea2c0c220cfe1535f225d3ef&amp;dn=UFO+-+Making+Contact+%281983%29+%282009+Remastered+%26+Expanded%29&amp;tr=udp%3A%2F%2Ftracker.openbittorrent.com%3A80&amp;tr=udp%3A%2F%2Fopen.demonii.com%3A1337&amp;tr=udp%3A%2F%2Ftracker.coppersurfer.tk%3A6969&amp;tr=udp%3A%2F%2Fexodus.desync.com%3A6969","seeders":1,"leechers":0,"uploader":null,"files":14,"time":1305804451,"description":"Exact Audio Copy V0.99 prebeta 5 from 4. May 2009\n\nEAC extraction logfile from 27. February 2011, 9:37\n\nUFO / Making Contact\n\nUsed drive  : SlimtypeDVD A  DS8A4SH   Adapter: 0  ID: 1\n\nRead mode : Burst\n\nRead offset correction                      : 6\nOverread into Lead-In and Lead-Out          : No\nFill up missing offset samples with silence : Yes\nDelete leading and trailing silent blocks   : No\nNull samples used in CRC calculations       : Yes\nUsed interface                              : Native Win32 interface for Win NT &amp; 2000\nGap handling                                : Not detected, thus appended to previous track\n\nUsed output format              : User Defined Encoder\nSelected bitrate                : 768 kBit/s\nQuality                         : High\nAdd ID3 tag                     : No\nCommand line compressor         : C:\\Program Files (x86)\\Exact Audio Copy\\FLAC\\FLAC.EXE\n\n\nTOC of the extracted CD\n\n     Track |   Start  |  Length  | Start sector | End sector \n    ---------------------------------------------------------\n        1  |  0:00.00 |  3:58.19 |         0    |    17868   \n        2  |  3:58.19 |  4:29.70 |     17869    |    38113   \n        3  |  8:28.14 |  3:57.32 |     38114    |    55920   \n        4  | 12:25.46 |  3:20.71 |     55921    |    70991   \n        5  | 15:46.42 |  5:26.53 |     70992    |    95494   \n        6  | 21:13.20 |  4:14.14 |     95495    |   114558   \n        7  | 25:27.34 |  3:14.50 |    114559    |   129158   \n        8  | 28:42.09 |  4:24.22 |    129159    |   148980   \n        9  | 33:06.31 |  3:32.24 |    148981    |   164904   \n       10  | 36:38.55 |  3:16.64 |    164905    |   179668   \n       11  | 39:55.44 |  3:36.34 |    179669    |   195902   \n       12  | 43:32.03 |  5:48.73 |    195903    |   222075   \n       13  | 49:21.01 |  3:48.15 |    222076    |   239190   \n\n\nTrack  1\n\n     Filename C:\\Musikk\\UFO - Making Contact (1983)\\01 UFO - Blinded By A Lie.wav\n\n     Peak level 95.3 %\n     Test CRC E44816B0\n     Copy CRC E44816B0\n     Accurately ripped (confidence 4)  [AC723DAF]\n     Copy finished\n\nTrack  2\n\n     Filename C:\\Musikk\\UFO - Making Contact (1983)\\02 UFO - Diesel In the Dust.wav\n\n     Peak level 99.4 %\n     Test CRC F16B7117\n     Copy CRC F16B7117\n     Accurately ripped (confidence 4)  [0C46BB11]\n     Copy OK\n\nTrack  3\n\n     Filename C:\\Musikk\\UFO - Making Contact (1983)\\03 UFO - A Fool For Love.wav\n\n     Peak level 92.8 %\n     Test CRC 5FD62508\n     Copy CRC 5FD62508\n     Accurately ripped (confidence 4)  [86A404C5]\n     Copy OK\n\nTrack  4\n\n     Filename C:\\Musikk\\UFO - Making Contact (1983)\\04 UFO - You and Me.wav\n\n     Peak level 80.8 %\n     Test CRC AE1672CA\n     Copy CRC AE1672CA\n     Accurately ripped (confidence 4)  [9D3C482F]\n     Copy OK\n\nTrack  5\n\n     Filename C:\\Musikk\\UFO - Making Contact (1983)\\05 UFO - When It's Time to Rock.wav\n\n     Peak level 98.1 %\n     Test CRC 61EE02D5\n     Copy CRC 61EE02D5\n     Accurately ripped (confidence 4)  [ACB261A1]\n     Copy OK\n\nTrack  6\n\n     Filename C:\\Musikk\\UFO - Making Contact (1983)\\06 UFO - The Way the Wild Wind Blows.wav\n\n     Peak level 91.2 %\n     Test CRC CFE330EF\n     Copy CRC CFE330EF\n     Accurately ripped (confidence 4)  [229ED4C0]\n     Copy OK\n\nTrack  7\n\n     Filename C:\\Musikk\\UFO - Making Contact (1983)\\07 UFO - Call My Name.wav\n\n     Peak level 96.9 %\n     Test CRC 64B66D6B\n     Copy CRC 64B66D6B\n     Accurately ripped (confidence 4)  [F6DF8094]\n     Copy OK\n\nTrack  8\n\n     Filename C:\\Musikk\\UFO - Making Contact (1983)\\08 UFO - All Over You.wav\n\n     Peak level 97.3 %\n     Test CRC 4283AFA2\n     Copy CRC 4283AFA2\n     Accurately ripped (confidence 4)  [42D713A3]\n     Copy OK\n\nTrack  9\n\n     Filename C:\\Musikk\\UFO - Making Contact (1983)\\09 UFO - No Getaway.wav\n\n     Peak level 99.8 %\n     Test CRC FBD6EAE3\n     Copy CRC FBD6EAE3\n     Accurately ripped (confidence 4)  [70F11454]\n     Copy OK\n\nTrack 10\n\n     Filename C:\\Musikk\\UFO - Making Contact (1983)\\10 UFO - Push, It's Love.wav\n\n     Peak level 99.8 %\n     Test CRC 25CEBDDF\n     Copy CRC 25CEBDDF\n     Accurately ripped (confidence 4)  [8947AD5C]\n     Copy OK\n\nTrack 11\n\n     Filename C:\\Musikk\\UFO - Making Contact (1983)\\11 UFO - Everybody Knows.wav\n\n     Peak level 97.9 %\n     Test CRC 0DAE0AA8\n     Copy CRC 0DAE0AA8\n     Accurately ripped (confidence 4)  [0B0F6276]\n     Copy finished\n\nTrack 12\n\n     Filename C:\\Musikk\\UFO - Making Contact (1983)\\12 UFO - When It's Time To Rock (live).wav\n\n     Peak level 99.8 %\n     Test CRC B1B53858\n     Copy CRC B1B53858\n     Accurately ripped (confidence 4)  [642ADBAB]\n     Copy OK\n\nTrack 13\n\n     Filename C:\\Musikk\\UFO - Making Contact (1983)\\13 UFO - Blinded By A Lie (live).wav\n\n     Peak level 99.8 %\n     Test CRC E43F2C4F\n     Copy CRC E43F2C4F\n     Accurately ripped (confidence 4)  [E1DD1B4C]\n     Copy OK\n\n\nAll tracks accurately ripped\n\nNo errors occurred\n\nEnd of status report\n","torrent":{"xt":"urn:btih:7eda1074852c311dea2c0c220cfe1535f225d3ef","amp;dn":"UFO+-+Making+Contact+%281983%29+%282009+Remastered+%26+Expanded%29","amp;tr":["udp%3A%2F%2Ftracker.openbittorrent.com%3A80","udp%3A%2F%2Fopen.demonii.com%3A1337","udp%3A%2F%2Ftracker.coppersurfer.tk%3A6969","udp%3A%2F%2Fexodus.desync.com%3A6969"],"infoHash":"7eda1074852c311dea2c0c220cfe1535f225d3ef","infoHashBuffer":{"type":"Buffer","data":[126,218,16,116,133,44,49,29,234,44,12,34,12,254,21,53,242,37,211,239]},"announce":[],"urlList":[]}}